<svg id="Group_9441" data-name="Group 9441" xmlns="http://www.w3.org/2000/svg" width="290.247" height="118.414" viewBox="0 0 290.247 118.414">
  <defs>
    <style>
      .cls-1 {
        fill: #e62136;
      }

      .cls-2 {
        fill: #fff;
      }
    </style>
  </defs>
  <path id="Path_3870" data-name="Path 3870" class="cls-1" d="M380.285,899.474H322.856a9.374,9.374,0,0,0-9.374,9.373L310.14,966.98a9.374,9.374,0,0,0,9.374,9.374h70.565c5.177,0,3.045-4.2,3.045-9.374l-3.465-58.133A9.374,9.374,0,0,0,380.285,899.474Z" transform="translate(-293.514 -876.657)"/>
  <path id="Path_3871" data-name="Path 3871" class="cls-1" d="M366.316,861.612h0a19.038,19.038,0,0,0-19.038,19.039v25.723h5.668V881.086a13.37,13.37,0,0,1,13.37-13.37h0a13.37,13.37,0,0,1,13.371,13.37v25.287h5.668V880.651A19.039,19.039,0,0,0,366.316,861.612Z" transform="translate(-308.271 -861.612)"/>
  <g id="Group_9440" data-name="Group 9440" transform="translate(0 22.381)">
    <g id="Group_9439" data-name="Group 9439">
      <path id="Path_3872" data-name="Path 3872" class="cls-2" d="M315.479,976.946a54.6,54.6,0,0,1-17.923-3.019,43.321,43.321,0,0,1-15.005-8.625l6.947-12.075a59.129,59.129,0,0,0,12.991,7.4,33.789,33.789,0,0,0,12.574,2.515q5.556,0,8.753-2.156a7.01,7.01,0,0,0,3.2-6.181,6.186,6.186,0,0,0-3.751-5.893,79.523,79.523,0,0,0-12.226-4.313q-7.085-2.011-12.087-3.881a30.57,30.57,0,0,1-8.058-4.24,14.373,14.373,0,0,1-4.446-5.462,17.946,17.946,0,0,1-1.389-7.4,24.115,24.115,0,0,1,2.153-10.349,22.417,22.417,0,0,1,6.044-7.834,27.654,27.654,0,0,1,9.1-4.959,35.823,35.823,0,0,1,11.323-1.725,47.221,47.221,0,0,1,15.352,2.444,37.2,37.2,0,0,1,13.129,7.906h0a14.3,14.3,0,0,1-17.55,5.607q-.361-.15-.72-.289a28.587,28.587,0,0,0-10.351-2.012,14.591,14.591,0,0,0-7.919,2.012q-3.2,2.015-3.2,6.468a6.414,6.414,0,0,0,.764,3.306,6.8,6.8,0,0,0,2.431,2.3,23.284,23.284,0,0,0,4.376,1.941q2.709.936,6.739,1.94,7.5,2.015,12.851,4.024a34.684,34.684,0,0,1,8.753,4.6,16.255,16.255,0,0,1,5,5.966,18.885,18.885,0,0,1,1.6,8.121q0,11.07-7.919,17.465T315.479,976.946Z" transform="translate(-282.551 -898.75)"/>
    </g>
  </g>
  <path id="Path_3873" data-name="Path 3873" class="cls-2" d="M431.146,987.979H420.237V964.044q0-5.049-1.873-7.451a6.327,6.327,0,0,0-5.292-2.4,8.346,8.346,0,0,0-3.093.652,12.091,12.091,0,0,0-3.095,1.833,15.646,15.646,0,0,0-2.687,2.808,11.106,11.106,0,0,0-1.791,3.582v24.914H391.5V928.547h0a10.91,10.91,0,0,1,10.91,10.91v13.758a16.445,16.445,0,0,1,6.391-6.392,18.048,18.048,0,0,1,8.916-2.239,14.039,14.039,0,0,1,6.757,1.425,10.761,10.761,0,0,1,4.07,3.786,15.592,15.592,0,0,1,2.036,5.373,33.3,33.3,0,0,1,.57,6.189Z" transform="translate(-325.841 -888.209)"/>
  <path id="Path_3874" data-name="Path 3874" class="cls-1" d="M556.43,999.368a16.8,16.8,0,0,1-8.791-2.24,15.9,15.9,0,0,1-5.862-6.065V1015.9h-2.933a7.977,7.977,0,0,1-7.977-7.977V955.891h9.525v7.328a17.406,17.406,0,0,1,6.106-5.9,16.992,16.992,0,0,1,8.63-2.157,18.287,18.287,0,0,1,7.979,1.75,19.8,19.8,0,0,1,6.309,4.723,22.032,22.032,0,0,1,4.153,7,24.128,24.128,0,0,1,1.506,8.509,26.907,26.907,0,0,1-1.384,8.712,22.289,22.289,0,0,1-3.867,7.082,18.048,18.048,0,0,1-5.9,4.723A16.528,16.528,0,0,1,556.43,999.368Zm-3.664-9.281a9.806,9.806,0,0,0,4.52-1.059,10.918,10.918,0,0,0,3.541-2.85,13.333,13.333,0,0,0,2.281-4.151,14.908,14.908,0,0,0,.814-4.886,13.786,13.786,0,0,0-.9-5.007,12.451,12.451,0,0,0-2.483-4.029,11.572,11.572,0,0,0-3.745-2.687,11.218,11.218,0,0,0-4.681-.977,10.275,10.275,0,0,0-3.177.528,11.241,11.241,0,0,0-3.012,1.506,13.165,13.165,0,0,0-2.483,2.281,9.485,9.485,0,0,0-1.669,2.848v10.015a14.484,14.484,0,0,0,4.478,6.065A10.231,10.231,0,0,0,552.766,990.087Z" transform="translate(-381.221 -898.783)"/>
  <path id="Path_3875" data-name="Path 3875" class="cls-1" d="M642.078,999.368a16.8,16.8,0,0,1-8.791-2.24,15.9,15.9,0,0,1-5.862-6.065V1015.9h-2.346a8.565,8.565,0,0,1-8.564-8.565v-51.44h9.525v7.328a17.407,17.407,0,0,1,6.106-5.9,16.992,16.992,0,0,1,8.63-2.157,18.287,18.287,0,0,1,7.979,1.75,19.8,19.8,0,0,1,6.309,4.723,22.031,22.031,0,0,1,4.153,7,24.131,24.131,0,0,1,1.506,8.509,26.907,26.907,0,0,1-1.384,8.712,22.3,22.3,0,0,1-3.867,7.082,18.048,18.048,0,0,1-5.9,4.723A16.528,16.528,0,0,1,642.078,999.368Zm-3.663-9.281a9.806,9.806,0,0,0,4.52-1.059,10.917,10.917,0,0,0,3.54-2.85,13.331,13.331,0,0,0,2.281-4.151,14.906,14.906,0,0,0,.814-4.886,13.785,13.785,0,0,0-.9-5.007,12.446,12.446,0,0,0-2.483-4.029,11.571,11.571,0,0,0-3.745-2.687,11.217,11.217,0,0,0-4.681-.977,10.275,10.275,0,0,0-3.177.528,11.243,11.243,0,0,0-3.012,1.506,13.167,13.167,0,0,0-2.483,2.281,9.475,9.475,0,0,0-1.669,2.848v10.015a14.485,14.485,0,0,0,4.478,6.065A10.231,10.231,0,0,0,638.414,990.087Z" transform="translate(-415.254 -898.783)"/>
  <path id="Path_3876" data-name="Path 3876" class="cls-1" d="M697.678,1007.34a21.128,21.128,0,0,0,2.687.611,14.682,14.682,0,0,0,2.2.2,4.681,4.681,0,0,0,1.953-.406,4.182,4.182,0,0,0,1.628-1.425,13.9,13.9,0,0,0,1.466-2.809q.733-1.792,1.548-4.478l-16.853-42.662h0a15.806,15.806,0,0,1,14.927,10.611l7.869,22.607,7.232-23.418a13.9,13.9,0,0,1,13.284-9.8h0L717.706,1007.5a15.292,15.292,0,0,1-5.292,7.328,14.883,14.883,0,0,1-9.282,2.849,17.651,17.651,0,0,1-2.645-.2,16.749,16.749,0,0,1-2.81-.692Z" transform="translate(-445.369 -899.266)"/>
  <path id="Path_3877" data-name="Path 3877" class="cls-1" d="M488.587,988.56a3.821,3.821,0,0,1-.609-2.435V972.893q0-8.524-5.074-13.03t-14.247-4.506a30.942,30.942,0,0,0-13.751,3.173,4.615,4.615,0,0,0-2.072,6.151l1.454,3.015a30.959,30.959,0,0,1,6.657-3.571,18.8,18.8,0,0,1,6.657-1.217q4.707,0,7.1,2.272a8.533,8.533,0,0,1,2.395,6.494v2.436a22.7,22.7,0,0,0-4.83-1.38,31.528,31.528,0,0,0-5.561-.487,24.979,24.979,0,0,0-7.306,1.015,18.555,18.555,0,0,0-5.723,2.8,12.745,12.745,0,0,0-3.734,4.343,11.809,11.809,0,0,0-1.34,5.562,12.913,12.913,0,0,0,1.1,5.357,13.234,13.234,0,0,0,3.044,4.262,13.873,13.873,0,0,0,4.627,2.841,16.153,16.153,0,0,0,5.764,1.015,19.818,19.818,0,0,0,8.686-1.949,18.816,18.816,0,0,0,6.9-5.683l.244,2.355a5.927,5.927,0,0,0,2.07,3.653,7.25,7.25,0,0,0,4.749,1.381,24.312,24.312,0,0,0,4.79-.569v-9.254A2.663,2.663,0,0,1,488.587,988.56Zm-35.119.857a2.415,2.415,0,0,1-.837-2.632,2.382,2.382,0,0,1,2.074-1.728A8.249,8.249,0,0,0,453.468,989.417Zm14.745,2.946a12.707,12.707,0,0,1-13.5-5.205,31.376,31.376,0,0,0,23.216-5.636A12.733,12.733,0,0,1,468.213,992.363Zm11.672-9.727a21.757,21.757,0,0,0-1.417-1.77,21.432,21.432,0,0,0-1.734-1.458,2.486,2.486,0,0,1,3.152,3.228Z" transform="translate(-348.534 -898.862)"/>
</svg>
